<?xml version="1.0" encoding="UTF-8" standalone="no"?>
<!DOCTYPE svg PUBLIC "-//W3C//DTD SVG 1.1//EN"
 "http://www.w3.org/Graphics/SVG/1.1/DTD/svg11.dtd">
<!-- Generated by graphviz version 2.28.0 (20121231.2356)
 -->
<!-- Title: g Pages: 1 -->
<svg width="254pt" height="368pt"
 viewBox="0.00 0.00 254.00 368.00" xmlns="http://www.w3.org/2000/svg" xmlns:xlink="http://www.w3.org/1999/xlink">
<g id="graph1" class="graph" transform="scale(1 1) rotate(0) translate(4 364)">
<title>g</title>
<polygon fill="white" stroke="white" points="-4,5 -4,-364 251,-364 251,5 -4,5"/>
<!-- ideasmd -->
<g id="node2" class="node"><title>ideasmd</title>
<ellipse fill="none" stroke="black" cx="219" cy="-180" rx="27" ry="18"/>
<text text-anchor="middle" x="219" y="-176.4" font-family="Times,serif" font-size="9.00">ideasmd</text>
</g>
<!-- ideatablexq -->
<g id="node4" class="node"><title>ideatablexq</title>
<ellipse fill="none" stroke="black" cx="74" cy="-342" rx="55.5886" ry="18"/>
<text text-anchor="middle" x="74" y="-336.4" font-family="Times,serif" font-size="14.00">ideatablexq</text>
</g>
<!-- ideatablexq&#45;&gt;ideasmd -->
<g id="edge4" class="edge"><title>ideatablexq&#45;&gt;ideasmd</title>
<path fill="none" stroke="black" d="M118.034,-330.737C128.451,-326.795 139.129,-321.639 148,-315 183.322,-288.565 202.357,-239.117 211.318,-207.965"/>
<polygon fill="black" stroke="black" points="214.737,-208.729 213.979,-198.161 207.981,-206.895 214.737,-208.729"/>
<text text-anchor="middle" x="170" y="-308.8" font-family="Times,serif" font-size="9.00">xquery</text>
</g>
<!-- examplesparql -->
<g id="node7" class="node"><title>examplesparql</title>
<ellipse fill="none" stroke="black" cx="74" cy="-288" rx="67.1937" ry="18"/>
<text text-anchor="middle" x="74" y="-282.4" font-family="Times,serif" font-size="14.00">examplesparql</text>
</g>
<!-- examplesparql&#45;&gt;ideasmd -->
<g id="edge7" class="edge"><title>examplesparql&#45;&gt;ideasmd</title>
<path fill="none" stroke="black" d="M121.15,-274.95C130.474,-271.23 139.893,-266.62 148,-261 169.79,-245.894 189.032,-222.471 201.799,-204.691"/>
<polygon fill="black" stroke="black" points="204.679,-206.681 207.53,-196.477 198.938,-202.676 204.679,-206.681"/>
<text text-anchor="middle" x="170" y="-255.8" font-family="Times,serif" font-size="9.00">data</text>
</g>
<!-- insertrdfxq -->
<g id="node10" class="node"><title>insertrdfxq</title>
<ellipse fill="none" stroke="black" cx="74" cy="-234" rx="53.3166" ry="18"/>
<text text-anchor="middle" x="74" y="-228.4" font-family="Times,serif" font-size="14.00">insertrdfxq</text>
</g>
<!-- insertrdfxq&#45;&gt;ideasmd -->
<g id="edge10" class="edge"><title>insertrdfxq&#45;&gt;ideasmd</title>
<path fill="none" stroke="black" d="M111.091,-220.907C132.121,-213.209 159.121,-203.209 183,-194 184.008,-193.611 185.031,-193.215 186.063,-192.813"/>
<polygon fill="black" stroke="black" points="187.418,-196.041 195.439,-189.12 184.852,-189.528 187.418,-196.041"/>
<text text-anchor="middle" x="170" y="-204.8" font-family="Times,serif" font-size="9.00">xquery</text>
</g>
<!-- ideaasxmlsparql -->
<g id="node13" class="node"><title>ideaasxmlsparql</title>
<ellipse fill="none" stroke="black" cx="74" cy="-180" rx="73.5762" ry="18"/>
<text text-anchor="middle" x="74" y="-174.4" font-family="Times,serif" font-size="14.00">ideaasxmlsparql</text>
</g>
<!-- ideaasxmlsparql&#45;&gt;ideasmd -->
<g id="edge13" class="edge"><title>ideaasxmlsparql&#45;&gt;ideasmd</title>
<path fill="none" stroke="black" d="M148.176,-180C159.804,-180 171.373,-180 181.651,-180"/>
<polygon fill="black" stroke="black" points="181.844,-183.5 191.844,-180 181.844,-176.5 181.844,-183.5"/>
<text text-anchor="middle" x="170" y="-181.8" font-family="Times,serif" font-size="9.00">data</text>
</g>
<!-- ideassparql -->
<g id="node16" class="node"><title>ideassparql</title>
<ellipse fill="none" stroke="black" cx="74" cy="-126" rx="54.4572" ry="18"/>
<text text-anchor="middle" x="74" y="-120.4" font-family="Times,serif" font-size="14.00">ideassparql</text>
</g>
<!-- ideassparql&#45;&gt;ideasmd -->
<g id="edge16" class="edge"><title>ideassparql&#45;&gt;ideasmd</title>
<path fill="none" stroke="black" d="M112.167,-138.954C133.077,-146.375 159.605,-156.015 183,-165.2 184.174,-165.661 185.369,-166.136 186.573,-166.62"/>
<polygon fill="black" stroke="black" points="185.273,-169.869 195.853,-170.43 187.932,-163.394 185.273,-169.869"/>
<text text-anchor="middle" x="170" y="-167.8" font-family="Times,serif" font-size="9.00">sparql</text>
</g>
<!-- samideardfa -->
<g id="node19" class="node"><title>samideardfa</title>
<ellipse fill="none" stroke="black" cx="74" cy="-72" rx="58.446" ry="18"/>
<text text-anchor="middle" x="74" y="-66.4" font-family="Times,serif" font-size="14.00">samideardfa</text>
</g>
<!-- samideardfa&#45;&gt;ideasmd -->
<g id="edge19" class="edge"><title>samideardfa&#45;&gt;ideasmd</title>
<path fill="none" stroke="black" d="M118.09,-83.8592C128.394,-87.7712 139.005,-92.764 148,-99 169.79,-114.106 189.032,-137.529 201.799,-155.309"/>
<polygon fill="black" stroke="black" points="198.938,-157.324 207.53,-163.523 204.679,-153.319 198.938,-157.324"/>
<text text-anchor="middle" x="170" y="-132.8" font-family="Times,serif" font-size="9.00">n3</text>
</g>
<!-- samsideassparql -->
<g id="node22" class="node"><title>samsideassparql</title>
<ellipse fill="none" stroke="black" cx="74" cy="-18" rx="73.5856" ry="18"/>
<text text-anchor="middle" x="74" y="-12.4" font-family="Times,serif" font-size="14.00">samsideassparql</text>
</g>
<!-- samsideassparql&#45;&gt;ideasmd -->
<g id="edge22" class="edge"><title>samsideassparql&#45;&gt;ideasmd</title>
<path fill="none" stroke="black" d="M123.346,-31.4383C132.011,-35.0531 140.621,-39.5247 148,-45 183.621,-71.4306 202.636,-121.314 211.5,-152.484"/>
<polygon fill="black" stroke="black" points="208.155,-153.524 214.126,-162.276 214.916,-151.711 208.155,-153.524"/>
<text text-anchor="middle" x="170" y="-86.8" font-family="Times,serif" font-size="9.00">data</text>
</g>
</g>
</svg>
